<?xml version="1.0" encoding="UTF-8" standalone="no"?>
<!DOCTYPE svg PUBLIC "-//W3C//DTD SVG 1.1//EN"
 "http://www.w3.org/Graphics/SVG/1.1/DTD/svg11.dtd">
<!-- Generated by graphviz version 2.50.0 (0)
 -->
<!-- Title: G Pages: 1 -->
<svg width="913pt" height="608pt"
 viewBox="0.00 0.00 912.50 608.00" xmlns="http://www.w3.org/2000/svg" xmlns:xlink="http://www.w3.org/1999/xlink">
<g id="graph0" class="graph" transform="scale(1 1) rotate(0) translate(4 604)">
<title>G</title>
<polygon fill="white" stroke="transparent" points="-4,4 -4,-604 908.5,-604 908.5,4 -4,4"/>
<!-- batch -->
<g id="node1" class="node">
<title>batch</title>
<text text-anchor="start" x="43.5" y="-335.4" font-family="Bitstream-Vera Sans" font-size="7.00">batch</text>
<polygon fill="none" stroke="black" points="10.5,-329 10.5,-331 94.5,-331 94.5,-329 10.5,-329"/>
<text text-anchor="start" x="12.5" y="-321.4" font-family="Bitstream-Vera Sans" font-size="7.00">&#45; uid : INTEGER</text>
<text text-anchor="start" x="12.5" y="-309.4" font-family="Bitstream-Vera Sans" font-size="7.00">&#45; project_id : INTEGER</text>
<text text-anchor="start" x="12.5" y="-297.4" font-family="Bitstream-Vera Sans" font-size="7.00">&#45; timestamp : DATETIME</text>
<text text-anchor="start" x="12.5" y="-285.4" font-family="Bitstream-Vera Sans" font-size="7.00">&#45; name : VARCHAR</text>
<polygon fill="none" stroke="black" points="9.5,-280 9.5,-344 95.5,-344 95.5,-280 9.5,-280"/>
</g>
<!-- project -->
<g id="node2" class="node">
<title>project</title>
<text text-anchor="start" x="40" y="-203.4" font-family="Bitstream-Vera Sans" font-size="7.00">project</text>
<polygon fill="none" stroke="black" points="9.5,-197 9.5,-199 92.5,-199 92.5,-197 9.5,-197"/>
<text text-anchor="start" x="11.5" y="-189.4" font-family="Bitstream-Vera Sans" font-size="7.00">&#45; uid : INTEGER</text>
<text text-anchor="start" x="11.5" y="-177.4" font-family="Bitstream-Vera Sans" font-size="7.00">&#45; target : VARCHAR</text>
<text text-anchor="start" x="11.5" y="-165.4" font-family="Bitstream-Vera Sans" font-size="7.00">&#45; proposal_id : INTEGER</text>
<text text-anchor="start" x="11.5" y="-153.4" font-family="Bitstream-Vera Sans" font-size="7.00">&#45; year : INTEGER</text>
<text text-anchor="start" x="11.5" y="-141.4" font-family="Bitstream-Vera Sans" font-size="7.00">&#45; cycle : INTEGER</text>
<text text-anchor="start" x="11.5" y="-129.4" font-family="Bitstream-Vera Sans" font-size="7.00">&#45; visit : INTEGER</text>
<polygon fill="none" stroke="black" points="8,-124 8,-212 93,-212 93,-124 8,-124"/>
</g>
<!-- batch&#45;&gt;project -->
<g id="edge1" class="edge">
<title>batch&#45;&gt;project</title>
<path fill="none" stroke="black" d="M52.01,-275.9C51.79,-260.37 51.52,-241.74 51.28,-224.4"/>
<ellipse fill="none" stroke="black" cx="51.22" cy="-220.02" rx="4" ry="4"/>
<text text-anchor="middle" x="43.16" y="-218.42" font-family="Bitstream-Vera Sans" font-size="7.00">+ uid</text>
<text text-anchor="middle" x="33.51" y="-270.3" font-family="Bitstream-Vera Sans" font-size="7.00">+ project_id</text>
</g>
<!-- drop_position -->
<g id="node3" class="node">
<title>drop_position</title>
<text text-anchor="start" x="563" y="-191.4" font-family="Bitstream-Vera Sans" font-size="7.00">drop_position</text>
<polygon fill="none" stroke="black" points="547.5,-185 547.5,-187 620.5,-187 620.5,-185 547.5,-185"/>
<text text-anchor="start" x="549.5" y="-177.4" font-family="Bitstream-Vera Sans" font-size="7.00">&#45; uid : INTEGER</text>
<text text-anchor="start" x="549.5" y="-165.4" font-family="Bitstream-Vera Sans" font-size="7.00">&#45; name : VARCHAR</text>
<text text-anchor="start" x="549.5" y="-153.4" font-family="Bitstream-Vera Sans" font-size="7.00">&#45; x_offset : INTEGER</text>
<text text-anchor="start" x="549.5" y="-141.4" font-family="Bitstream-Vera Sans" font-size="7.00">&#45; y_offset : INTEGER</text>
<polygon fill="none" stroke="black" points="546,-136 546,-200 621,-200 621,-136 546,-136"/>
</g>
<!-- echo_transfer -->
<g id="node4" class="node">
<title>echo_transfer</title>
<text text-anchor="start" x="305" y="-497.4" font-family="Bitstream-Vera Sans" font-size="7.00">echo_transfer</text>
<polygon fill="none" stroke="black" points="277.5,-491 277.5,-493 375.5,-493 375.5,-491 277.5,-491"/>
<text text-anchor="start" x="279.5" y="-483.4" font-family="Bitstream-Vera Sans" font-size="7.00">&#45; uid : INTEGER</text>
<text text-anchor="start" x="279.5" y="-471.4" font-family="Bitstream-Vera Sans" font-size="7.00">&#45; batch_id : INTEGER</text>
<text text-anchor="start" x="279.5" y="-459.4" font-family="Bitstream-Vera Sans" font-size="7.00">&#45; from_well_id : INTEGER</text>
<text text-anchor="start" x="279.5" y="-447.4" font-family="Bitstream-Vera Sans" font-size="7.00">&#45; to_well_id : INTEGER</text>
<text text-anchor="start" x="279.5" y="-435.4" font-family="Bitstream-Vera Sans" font-size="7.00">&#45; transfer_volume : INTEGER</text>
<text text-anchor="start" x="279.5" y="-423.4" font-family="Bitstream-Vera Sans" font-size="7.00">&#45; timestamp : DATETIME</text>
<polygon fill="none" stroke="black" points="276.5,-418 276.5,-506 376.5,-506 376.5,-418 276.5,-418"/>
</g>
<!-- echo_transfer&#45;&gt;batch -->
<g id="edge4" class="edge">
<title>echo_transfer&#45;&gt;batch</title>
<path fill="none" stroke="black" d="M268.19,-441.29C225.59,-425.61 167.34,-401.44 120.5,-372 112.02,-366.67 103.53,-360.31 95.56,-353.78"/>
<ellipse fill="none" stroke="black" cx="92.06" cy="-350.84" rx="4" ry="4"/>
<text text-anchor="middle" x="81" y="-350.66" font-family="Bitstream-Vera Sans" font-size="7.00">+ uid</text>
<text text-anchor="middle" x="251.69" y="-443.69" font-family="Bitstream-Vera Sans" font-size="7.00">+ batch_id</text>
</g>
<!-- library_well -->
<g id="node5" class="node">
<title>library_well</title>
<text text-anchor="start" x="309" y="-353.4" font-family="Bitstream-Vera Sans" font-size="7.00">library_well</text>
<polygon fill="none" stroke="black" points="270.5,-347 270.5,-349 382.5,-349 382.5,-347 270.5,-347"/>
<text text-anchor="start" x="272.5" y="-339.4" font-family="Bitstream-Vera Sans" font-size="7.00">&#45; uid : INTEGER</text>
<text text-anchor="start" x="272.5" y="-327.4" font-family="Bitstream-Vera Sans" font-size="7.00">&#45; plate_uid : INTEGER</text>
<text text-anchor="start" x="272.5" y="-315.4" font-family="Bitstream-Vera Sans" font-size="7.00">&#45; library_well_type_uid : INTEGER</text>
<text text-anchor="start" x="272.5" y="-303.4" font-family="Bitstream-Vera Sans" font-size="7.00">&#45; used : BOOLEAN</text>
<text text-anchor="start" x="272.5" y="-291.4" font-family="Bitstream-Vera Sans" font-size="7.00">&#45; catalog_id : VARCHAR</text>
<text text-anchor="start" x="272.5" y="-279.4" font-family="Bitstream-Vera Sans" font-size="7.00">&#45; smiles : VARCHAR</text>
<text text-anchor="start" x="272.5" y="-267.4" font-family="Bitstream-Vera Sans" font-size="7.00">&#45; sequence : INTEGER</text>
<polygon fill="none" stroke="black" points="269.5,-262 269.5,-362 383.5,-362 383.5,-262 269.5,-262"/>
</g>
<!-- echo_transfer&#45;&gt;library_well -->
<g id="edge2" class="edge">
<title>echo_transfer&#45;&gt;library_well</title>
<path fill="none" stroke="black" d="M326.5,-413.76C326.5,-401.22 326.5,-387.5 326.5,-374.33"/>
<ellipse fill="none" stroke="black" cx="326.5" cy="-370.21" rx="4" ry="4"/>
<text text-anchor="middle" x="318.5" y="-368.61" font-family="Bitstream-Vera Sans" font-size="7.00">+ uid</text>
<text text-anchor="middle" x="303.5" y="-408.16" font-family="Bitstream-Vera Sans" font-size="7.00">+ from_well_id</text>
</g>
<!-- xtal_well -->
<g id="node9" class="node">
<title>xtal_well</title>
<text text-anchor="start" x="570" y="-359.4" font-family="Bitstream-Vera Sans" font-size="7.00">xtal_well</text>
<polygon fill="none" stroke="black" points="530.5,-353 530.5,-355 637.5,-355 637.5,-353 530.5,-353"/>
<text text-anchor="start" x="532.5" y="-345.4" font-family="Bitstream-Vera Sans" font-size="7.00">&#45; uid : INTEGER</text>
<text text-anchor="start" x="532.5" y="-333.4" font-family="Bitstream-Vera Sans" font-size="7.00">&#45; drop_position_uid : INTEGER</text>
<text text-anchor="start" x="532.5" y="-321.4" font-family="Bitstream-Vera Sans" font-size="7.00">&#45; plate_uid : INTEGER</text>
<text text-anchor="start" x="532.5" y="-309.4" font-family="Bitstream-Vera Sans" font-size="7.00">&#45; well_type_uid : INTEGER</text>
<text text-anchor="start" x="532.5" y="-297.4" font-family="Bitstream-Vera Sans" font-size="7.00">&#45; harvesting_status : BOOLEAN</text>
<text text-anchor="start" x="532.5" y="-285.4" font-family="Bitstream-Vera Sans" font-size="7.00">&#45; sequence : INTEGER</text>
<text text-anchor="start" x="532.5" y="-273.4" font-family="Bitstream-Vera Sans" font-size="7.00">&#45; time_arrival : DATETIME</text>
<text text-anchor="start" x="532.5" y="-261.4" font-family="Bitstream-Vera Sans" font-size="7.00">&#45; harvest_comment : VARCHAR</text>
<polygon fill="none" stroke="black" points="529,-256 529,-368 638,-368 638,-256 529,-256"/>
</g>
<!-- echo_transfer&#45;&gt;xtal_well -->
<g id="edge3" class="edge">
<title>echo_transfer&#45;&gt;xtal_well</title>
<path fill="none" stroke="black" d="M384.82,-427.42C423.1,-405.37 473.36,-376.42 513.76,-353.16"/>
<ellipse fill="none" stroke="black" cx="517.46" cy="-351.03" rx="4" ry="4"/>
<text text-anchor="middle" x="512.92" y="-351.44" font-family="Bitstream-Vera Sans" font-size="7.00">+ uid</text>
<text text-anchor="middle" x="403.32" y="-429.82" font-family="Bitstream-Vera Sans" font-size="7.00">+ to_well_id</text>
</g>
<!-- library_plate -->
<g id="node6" class="node">
<title>library_plate</title>
<text text-anchor="start" x="310" y="-185.4" font-family="Bitstream-Vera Sans" font-size="7.00">library_plate</text>
<polygon fill="none" stroke="black" points="271.5,-179 271.5,-181 386.5,-181 386.5,-179 271.5,-179"/>
<text text-anchor="start" x="273.5" y="-171.4" font-family="Bitstream-Vera Sans" font-size="7.00">&#45; uid : INTEGER</text>
<text text-anchor="start" x="273.5" y="-159.4" font-family="Bitstream-Vera Sans" font-size="7.00">&#45; library_plate_type_uid : INTEGER</text>
<text text-anchor="start" x="273.5" y="-147.4" font-family="Bitstream-Vera Sans" font-size="7.00">&#45; name : VARCHAR</text>
<polygon fill="none" stroke="black" points="270,-142 270,-194 387,-194 387,-142 270,-142"/>
</g>
<!-- library_well&#45;&gt;library_plate -->
<g id="edge6" class="edge">
<title>library_well&#45;&gt;library_plate</title>
<path fill="none" stroke="black" d="M327.25,-257.72C327.49,-240.72 327.75,-222.28 327.97,-206.63"/>
<ellipse fill="none" stroke="black" cx="328.03" cy="-202.25" rx="4" ry="4"/>
<text text-anchor="middle" x="320.09" y="-200.65" font-family="Bitstream-Vera Sans" font-size="7.00">+ uid</text>
<text text-anchor="middle" x="310.25" y="-252.12" font-family="Bitstream-Vera Sans" font-size="7.00">+ plate_uid</text>
</g>
<!-- library_well_type -->
<g id="node8" class="node">
<title>library_well_type</title>
<text text-anchor="start" x="174.5" y="-179.4" font-family="Bitstream-Vera Sans" font-size="7.00">library_well_type</text>
<polygon fill="none" stroke="black" points="166.5,-173 166.5,-175 234.5,-175 234.5,-173 166.5,-173"/>
<text text-anchor="start" x="168.5" y="-165.4" font-family="Bitstream-Vera Sans" font-size="7.00">&#45; uid : INTEGER</text>
<text text-anchor="start" x="168.5" y="-153.4" font-family="Bitstream-Vera Sans" font-size="7.00">&#45; name : VARCHAR</text>
<polygon fill="none" stroke="black" points="165.5,-148 165.5,-188 235.5,-188 235.5,-148 165.5,-148"/>
</g>
<!-- library_well&#45;&gt;library_well_type -->
<g id="edge5" class="edge">
<title>library_well&#45;&gt;library_well_type</title>
<path fill="none" stroke="black" d="M279.22,-257.72C261.31,-237.53 241.59,-215.31 226.37,-198.15"/>
<ellipse fill="none" stroke="black" cx="223.63" cy="-195.06" rx="4" ry="4"/>
<text text-anchor="middle" x="212.97" y="-194.47" font-family="Bitstream-Vera Sans" font-size="7.00">+ uid</text>
<text text-anchor="middle" x="243.72" y="-252.12" font-family="Bitstream-Vera Sans" font-size="7.00">+ library_well_type_uid</text>
</g>
<!-- library_plate_type -->
<g id="node7" class="node">
<title>library_plate_type</title>
<text text-anchor="start" x="202" y="-65.4" font-family="Bitstream-Vera Sans" font-size="7.00">library_plate_type</text>
<polygon fill="none" stroke="black" points="192.5,-59 192.5,-61 266.5,-61 266.5,-59 192.5,-59"/>
<text text-anchor="start" x="194.5" y="-51.4" font-family="Bitstream-Vera Sans" font-size="7.00">&#45; uid : INTEGER</text>
<text text-anchor="start" x="194.5" y="-39.4" font-family="Bitstream-Vera Sans" font-size="7.00">&#45; name : VARCHAR</text>
<text text-anchor="start" x="194.5" y="-27.4" font-family="Bitstream-Vera Sans" font-size="7.00">&#45; rows : INTEGER</text>
<text text-anchor="start" x="194.5" y="-15.4" font-family="Bitstream-Vera Sans" font-size="7.00">&#45; columns : INTEGER</text>
<polygon fill="none" stroke="black" points="191.5,-10 191.5,-74 267.5,-74 267.5,-10 191.5,-10"/>
</g>
<!-- library_plate&#45;&gt;library_plate_type -->
<g id="edge7" class="edge">
<title>library_plate&#45;&gt;library_plate_type</title>
<path fill="none" stroke="black" d="M305.29,-137.93C292.56,-121.99 276.57,-101.96 262.56,-84.41"/>
<ellipse fill="none" stroke="black" cx="260" cy="-81.2" rx="4" ry="4"/>
<text text-anchor="middle" x="249.5" y="-80.47" font-family="Bitstream-Vera Sans" font-size="7.00">+ uid</text>
<text text-anchor="middle" x="268.29" y="-132.33" font-family="Bitstream-Vera Sans" font-size="7.00">+ library_plate_type_uid</text>
</g>
<!-- xtal_well&#45;&gt;drop_position -->
<g id="edge8" class="edge">
<title>xtal_well&#45;&gt;drop_position</title>
<path fill="none" stroke="black" d="M583.5,-251.6C583.5,-238.51 583.5,-224.88 583.5,-212.55"/>
<ellipse fill="none" stroke="black" cx="583.5" cy="-208.25" rx="4" ry="4"/>
<text text-anchor="middle" x="575.5" y="-206.65" font-family="Bitstream-Vera Sans" font-size="7.00">+ uid</text>
<text text-anchor="middle" x="553" y="-246" font-family="Bitstream-Vera Sans" font-size="7.00">+ drop_position_uid</text>
</g>
<!-- xtal_plate -->
<g id="node10" class="node">
<title>xtal_plate</title>
<text text-anchor="start" x="451.5" y="-185.4" font-family="Bitstream-Vera Sans" font-size="7.00">xtal_plate</text>
<polygon fill="none" stroke="black" points="422.5,-179 422.5,-181 511.5,-181 511.5,-179 422.5,-179"/>
<text text-anchor="start" x="424.5" y="-171.4" font-family="Bitstream-Vera Sans" font-size="7.00">&#45; uid : INTEGER</text>
<text text-anchor="start" x="424.5" y="-159.4" font-family="Bitstream-Vera Sans" font-size="7.00">&#45; plate_type_id : INTEGER</text>
<text text-anchor="start" x="424.5" y="-147.4" font-family="Bitstream-Vera Sans" font-size="7.00">&#45; name : VARCHAR</text>
<polygon fill="none" stroke="black" points="421,-142 421,-194 512,-194 512,-142 421,-142"/>
</g>
<!-- xtal_well&#45;&gt;xtal_plate -->
<g id="edge10" class="edge">
<title>xtal_well&#45;&gt;xtal_plate</title>
<path fill="none" stroke="black" d="M534.56,-251.6C521.42,-235.65 507.62,-218.9 495.9,-204.68"/>
<ellipse fill="none" stroke="black" cx="493.22" cy="-201.43" rx="4" ry="4"/>
<text text-anchor="middle" x="482.68" y="-200.74" font-family="Bitstream-Vera Sans" font-size="7.00">+ uid</text>
<text text-anchor="middle" x="517.56" y="-254" font-family="Bitstream-Vera Sans" font-size="7.00">+ plate_uid</text>
</g>
<!-- xtal_well_type -->
<g id="node12" class="node">
<title>xtal_well_type</title>
<text text-anchor="start" x="677" y="-185.4" font-family="Bitstream-Vera Sans" font-size="7.00">xtal_well_type</text>
<polygon fill="none" stroke="black" points="656.5,-179 656.5,-181 742.5,-181 742.5,-179 656.5,-179"/>
<text text-anchor="start" x="658.5" y="-171.4" font-family="Bitstream-Vera Sans" font-size="7.00">&#45; uid : INTEGER</text>
<text text-anchor="start" x="658.5" y="-159.4" font-family="Bitstream-Vera Sans" font-size="7.00">&#45; well_map_id : INTEGER</text>
<text text-anchor="start" x="658.5" y="-147.4" font-family="Bitstream-Vera Sans" font-size="7.00">&#45; name : VARCHAR</text>
<polygon fill="none" stroke="black" points="655.5,-142 655.5,-194 743.5,-194 743.5,-142 655.5,-142"/>
</g>
<!-- xtal_well&#45;&gt;xtal_well_type -->
<g id="edge9" class="edge">
<title>xtal_well&#45;&gt;xtal_well_type</title>
<path fill="none" stroke="black" d="M632.02,-251.6C645.05,-235.65 658.74,-218.9 670.35,-204.68"/>
<ellipse fill="none" stroke="black" cx="673" cy="-201.44" rx="4" ry="4"/>
<text text-anchor="middle" x="667.53" y="-200.74" font-family="Bitstream-Vera Sans" font-size="7.00">+ uid</text>
<text text-anchor="middle" x="656.52" y="-246" font-family="Bitstream-Vera Sans" font-size="7.00">+ well_type_uid</text>
</g>
<!-- xtal_plate_type -->
<g id="node11" class="node">
<title>xtal_plate_type</title>
<text text-anchor="start" x="755.5" y="-53.4" font-family="Bitstream-Vera Sans" font-size="7.00">xtal_plate_type</text>
<polygon fill="none" stroke="black" points="745.5,-47 745.5,-49 813.5,-49 813.5,-47 745.5,-47"/>
<text text-anchor="start" x="747.5" y="-39.4" font-family="Bitstream-Vera Sans" font-size="7.00">&#45; uid : INTEGER</text>
<text text-anchor="start" x="747.5" y="-27.4" font-family="Bitstream-Vera Sans" font-size="7.00">&#45; name : VARCHAR</text>
<polygon fill="none" stroke="black" points="744.5,-22 744.5,-62 814.5,-62 814.5,-22 744.5,-22"/>
</g>
<!-- xtal_plate&#45;&gt;xtal_plate_type -->
<g id="edge11" class="edge">
<title>xtal_plate&#45;&gt;xtal_plate_type</title>
<path fill="none" stroke="black" d="M499.11,-137.79C508.11,-131.03 518.24,-124.51 528.5,-120 610.79,-83.86 645.55,-120.92 727.5,-84 734.89,-80.67 742.15,-76.07 748.8,-71.14"/>
<ellipse fill="none" stroke="black" cx="752.06" cy="-68.6" rx="4" ry="4"/>
<text text-anchor="middle" x="747.22" y="-68.54" font-family="Bitstream-Vera Sans" font-size="7.00">+ uid</text>
<text text-anchor="middle" x="475.11" y="-132.19" font-family="Bitstream-Vera Sans" font-size="7.00">+ plate_type_id</text>
</g>
<!-- well_map -->
<g id="node13" class="node">
<title>well_map</title>
<text text-anchor="start" x="653.5" y="-71.4" font-family="Bitstream-Vera Sans" font-size="7.00">well_map</text>
<polygon fill="none" stroke="black" points="627.5,-65 627.5,-67 709.5,-67 709.5,-65 627.5,-65"/>
<text text-anchor="start" x="629.5" y="-57.4" font-family="Bitstream-Vera Sans" font-size="7.00">&#45; uid : INTEGER</text>
<text text-anchor="start" x="629.5" y="-45.4" font-family="Bitstream-Vera Sans" font-size="7.00">&#45; well_pos_x : INTEGER</text>
<text text-anchor="start" x="629.5" y="-33.4" font-family="Bitstream-Vera Sans" font-size="7.00">&#45; well_pos_y : INTEGER</text>
<text text-anchor="start" x="629.5" y="-21.4" font-family="Bitstream-Vera Sans" font-size="7.00">&#45; echo : VARCHAR</text>
<text text-anchor="start" x="629.5" y="-9.4" font-family="Bitstream-Vera Sans" font-size="7.00">&#45; shifter : VARCHAR</text>
<polygon fill="none" stroke="black" points="626.5,-4 626.5,-80 710.5,-80 710.5,-4 626.5,-4"/>
</g>
<!-- xtal_well_type&#45;&gt;well_map -->
<g id="edge12" class="edge">
<title>xtal_well_type&#45;&gt;well_map</title>
<path fill="none" stroke="black" d="M692.23,-137.93C688.82,-124.27 684.65,-107.62 680.77,-92.09"/>
<ellipse fill="none" stroke="black" cx="679.74" cy="-87.98" rx="4" ry="4"/>
<text text-anchor="middle" x="670.77" y="-86.5" font-family="Bitstream-Vera Sans" font-size="7.00">+ uid</text>
<text text-anchor="middle" x="669.73" y="-132.33" font-family="Bitstream-Vera Sans" font-size="7.00">+ well_map_id</text>
</g>
<!-- lib_ptype_wtype -->
<g id="node14" class="node">
<title>lib_ptype_wtype</title>
<text text-anchor="start" x="159" y="-323.4" font-family="Bitstream-Vera Sans" font-size="7.00">lib_ptype_wtype</text>
<polygon fill="none" stroke="black" points="138.5,-317 138.5,-319 230.5,-319 230.5,-317 138.5,-317"/>
<text text-anchor="start" x="140.5" y="-309.4" font-family="Bitstream-Vera Sans" font-size="7.00">&#45; plate_type_uid : INTEGER</text>
<text text-anchor="start" x="140.5" y="-297.4" font-family="Bitstream-Vera Sans" font-size="7.00">&#45; well_type_uid : INTEGER</text>
<polygon fill="none" stroke="black" points="137.5,-292 137.5,-332 231.5,-332 231.5,-292 137.5,-292"/>
</g>
<!-- lib_ptype_wtype&#45;&gt;library_plate_type -->
<g id="edge13" class="edge">
<title>lib_ptype_wtype&#45;&gt;library_plate_type</title>
<path fill="none" stroke="black" d="M171.75,-287.71C153.33,-250.77 124.02,-177.06 148.5,-120 154.82,-105.27 165.49,-92.03 177.06,-80.85"/>
<ellipse fill="none" stroke="black" cx="180.23" cy="-77.91" rx="4" ry="4"/>
<text text-anchor="middle" x="175.16" y="-77.6" font-family="Bitstream-Vera Sans" font-size="7.00">+ uid</text>
<text text-anchor="middle" x="145.75" y="-282.11" font-family="Bitstream-Vera Sans" font-size="7.00">+ plate_type_uid</text>
</g>
<!-- lib_ptype_wtype&#45;&gt;library_well_type -->
<g id="edge14" class="edge">
<title>lib_ptype_wtype&#45;&gt;library_well_type</title>
<path fill="none" stroke="black" d="M187.11,-287.87C189.79,-264.04 193.99,-226.75 196.97,-200.3"/>
<ellipse fill="none" stroke="black" cx="197.45" cy="-196.1" rx="4" ry="4"/>
<text text-anchor="middle" x="189.89" y="-194.52" font-family="Bitstream-Vera Sans" font-size="7.00">+ uid</text>
<text text-anchor="middle" x="211.61" y="-282.27" font-family="Bitstream-Vera Sans" font-size="7.00">+ well_type_uid</text>
</g>
<!-- pin -->
<g id="node15" class="node">
<title>pin</title>
<text text-anchor="start" x="670.5" y="-503.4" font-family="Bitstream-Vera Sans" font-size="7.00">pin</text>
<polygon fill="none" stroke="black" points="620.5,-497 620.5,-499 730.5,-499 730.5,-497 620.5,-497"/>
<text text-anchor="start" x="622.5" y="-489.4" font-family="Bitstream-Vera Sans" font-size="7.00">&#45; uid : INTEGER</text>
<text text-anchor="start" x="622.5" y="-477.4" font-family="Bitstream-Vera Sans" font-size="7.00">&#45; puck_uid : INTEGER</text>
<text text-anchor="start" x="622.5" y="-465.4" font-family="Bitstream-Vera Sans" font-size="7.00">&#45; position : INTEGER</text>
<text text-anchor="start" x="622.5" y="-453.4" font-family="Bitstream-Vera Sans" font-size="7.00">&#45; xtal_well_source_id : INTEGER</text>
<text text-anchor="start" x="622.5" y="-441.4" font-family="Bitstream-Vera Sans" font-size="7.00">&#45; parent_pin_id : INTEGER</text>
<text text-anchor="start" x="622.5" y="-429.4" font-family="Bitstream-Vera Sans" font-size="7.00">&#45; time_departure : DATETIME</text>
<text text-anchor="start" x="622.5" y="-417.4" font-family="Bitstream-Vera Sans" font-size="7.00">&#45; lsdc_sample_name : VARCHAR</text>
<polygon fill="none" stroke="black" points="619.5,-412 619.5,-512 731.5,-512 731.5,-412 619.5,-412"/>
</g>
<!-- pin&#45;&gt;xtal_well -->
<g id="edge15" class="edge">
<title>pin&#45;&gt;xtal_well</title>
<path fill="none" stroke="black" d="M642.55,-407.99C636.74,-398.64 630.63,-388.81 624.63,-379.16"/>
<ellipse fill="none" stroke="black" cx="622.4" cy="-375.57" rx="4" ry="4"/>
<text text-anchor="middle" x="612.28" y="-374.57" font-family="Bitstream-Vera Sans" font-size="7.00">+ uid</text>
<text text-anchor="middle" x="609.05" y="-402.39" font-family="Bitstream-Vera Sans" font-size="7.00">+ xtal_well_source_id</text>
</g>
<!-- pin&#45;&gt;pin -->
<g id="edge17" class="edge">
<title>pin&#45;&gt;pin</title>
<path fill="none" stroke="black" d="M739.79,-481.78C750.29,-478.95 757.5,-472.35 757.5,-462 757.5,-454.4 753.61,-448.82 747.38,-445.28"/>
<ellipse fill="none" stroke="black" cx="743.5" cy="-443.71" rx="4" ry="4"/>
<text text-anchor="middle" x="747.79" y="-444.62" font-family="Bitstream-Vera Sans" font-size="7.00">+ uid</text>
<text text-anchor="middle" x="763.79" y="-484.18" font-family="Bitstream-Vera Sans" font-size="7.00">+ parent_pin_id</text>
</g>
<!-- puck -->
<g id="node16" class="node">
<title>puck</title>
<text text-anchor="start" x="841.5" y="-335.4" font-family="Bitstream-Vera Sans" font-size="7.00">puck</text>
<polygon fill="none" stroke="black" points="803.5,-329 803.5,-331 895.5,-331 895.5,-329 803.5,-329"/>
<text text-anchor="start" x="805.5" y="-321.4" font-family="Bitstream-Vera Sans" font-size="7.00">&#45; uid : INTEGER</text>
<text text-anchor="start" x="805.5" y="-309.4" font-family="Bitstream-Vera Sans" font-size="7.00">&#45; puck_type_uid : INTEGER</text>
<text text-anchor="start" x="805.5" y="-297.4" font-family="Bitstream-Vera Sans" font-size="7.00">&#45; timestamp : DATETIME</text>
<text text-anchor="start" x="805.5" y="-285.4" font-family="Bitstream-Vera Sans" font-size="7.00">&#45; proposal_id : INTEGER</text>
<polygon fill="none" stroke="black" points="802.5,-280 802.5,-344 896.5,-344 896.5,-280 802.5,-280"/>
</g>
<!-- pin&#45;&gt;puck -->
<g id="edge16" class="edge">
<title>pin&#45;&gt;puck</title>
<path fill="none" stroke="black" d="M739.65,-409.55C754.5,-397.39 770.15,-384.35 784.5,-372 791.22,-366.21 798.24,-360.01 805.08,-353.88"/>
<ellipse fill="none" stroke="black" cx="808.33" cy="-350.95" rx="4" ry="4"/>
<text text-anchor="middle" x="803.3" y="-350.68" font-family="Bitstream-Vera Sans" font-size="7.00">+ uid</text>
<text text-anchor="middle" x="756.65" y="-411.95" font-family="Bitstream-Vera Sans" font-size="7.00">+ puck_uid</text>
</g>
<!-- puck_type -->
<g id="node17" class="node">
<title>puck_type</title>
<text text-anchor="start" x="834" y="-179.4" font-family="Bitstream-Vera Sans" font-size="7.00">puck_type</text>
<polygon fill="none" stroke="black" points="816.5,-173 816.5,-175 884.5,-175 884.5,-173 816.5,-173"/>
<text text-anchor="start" x="818.5" y="-165.4" font-family="Bitstream-Vera Sans" font-size="7.00">&#45; uid : INTEGER</text>
<text text-anchor="start" x="818.5" y="-153.4" font-family="Bitstream-Vera Sans" font-size="7.00">&#45; name : VARCHAR</text>
<polygon fill="none" stroke="black" points="815.5,-148 815.5,-188 885.5,-188 885.5,-148 815.5,-148"/>
</g>
<!-- puck&#45;&gt;puck_type -->
<g id="edge18" class="edge">
<title>puck&#45;&gt;puck_type</title>
<path fill="none" stroke="black" d="M849.75,-275.9C849.91,-252.74 850.12,-222.67 850.28,-200.32"/>
<ellipse fill="none" stroke="black" cx="850.31" cy="-196.16" rx="4" ry="4"/>
<text text-anchor="middle" x="842.34" y="-194.56" font-family="Bitstream-Vera Sans" font-size="7.00">+ uid</text>
<text text-anchor="middle" x="823.75" y="-270.3" font-family="Bitstream-Vera Sans" font-size="7.00">+ puck_type_uid</text>
</g>
<!-- pin_xtal_well -->
<g id="node18" class="node">
<title>pin_xtal_well</title>
<text text-anchor="start" x="609.5" y="-587.4" font-family="Bitstream-Vera Sans" font-size="7.00">pin_xtal_well</text>
<polygon fill="none" stroke="black" points="593.5,-581 593.5,-583 665.5,-583 665.5,-581 593.5,-581"/>
<text text-anchor="start" x="595.5" y="-573.4" font-family="Bitstream-Vera Sans" font-size="7.00">&#45; pin_uid : INTEGER</text>
<text text-anchor="start" x="595.5" y="-561.4" font-family="Bitstream-Vera Sans" font-size="7.00">&#45; well_uid : INTEGER</text>
<polygon fill="none" stroke="black" points="592.5,-556 592.5,-596 666.5,-596 666.5,-556 592.5,-556"/>
</g>
<!-- pin_xtal_well&#45;&gt;xtal_well -->
<g id="edge20" class="edge">
<title>pin_xtal_well&#45;&gt;xtal_well</title>
<path fill="none" stroke="black" d="M616.72,-551.85C611.43,-541.23 605.79,-528.3 602.5,-516 590.65,-471.69 585.93,-420.23 584.16,-380.21"/>
<ellipse fill="none" stroke="black" cx="583.99" cy="-376.1" rx="4" ry="4"/>
<text text-anchor="middle" x="575.83" y="-374.51" font-family="Bitstream-Vera Sans" font-size="7.00">+ uid</text>
<text text-anchor="middle" x="601.22" y="-546.25" font-family="Bitstream-Vera Sans" font-size="7.00">+ well_uid</text>
</g>
<!-- pin_xtal_well&#45;&gt;pin -->
<g id="edge19" class="edge">
<title>pin_xtal_well&#45;&gt;pin</title>
<path fill="none" stroke="black" d="M639.03,-551.79C642.43,-543.52 646.43,-533.78 650.52,-523.83"/>
<ellipse fill="none" stroke="black" cx="652.13" cy="-519.9" rx="4" ry="4"/>
<text text-anchor="middle" x="645.65" y="-518.6" font-family="Bitstream-Vera Sans" font-size="7.00">+ uid</text>
<text text-anchor="middle" x="653.03" y="-546.19" font-family="Bitstream-Vera Sans" font-size="7.00">+ pin_uid</text>
</g>
<!-- status -->
<g id="node19" class="node">
<title>status</title>
<text text-anchor="start" x="725.5" y="-587.4" font-family="Bitstream-Vera Sans" font-size="7.00">status</text>
<polygon fill="none" stroke="black" points="701.5,-581 701.5,-583 769.5,-583 769.5,-581 701.5,-581"/>
<text text-anchor="start" x="703.5" y="-573.4" font-family="Bitstream-Vera Sans" font-size="7.00">&#45; uid : INTEGER</text>
<text text-anchor="start" x="703.5" y="-561.4" font-family="Bitstream-Vera Sans" font-size="7.00">&#45; name : VARCHAR</text>
<polygon fill="none" stroke="black" points="700.5,-556 700.5,-596 770.5,-596 770.5,-556 700.5,-556"/>
</g>
<!-- xtal_ptype_wtype -->
<g id="node20" class="node">
<title>xtal_ptype_wtype</title>
<text text-anchor="start" x="693" y="-323.4" font-family="Bitstream-Vera Sans" font-size="7.00">xtal_ptype_wtype</text>
<polygon fill="none" stroke="black" points="674.5,-317 674.5,-319 766.5,-319 766.5,-317 674.5,-317"/>
<text text-anchor="start" x="676.5" y="-309.4" font-family="Bitstream-Vera Sans" font-size="7.00">&#45; plate_type_uid : INTEGER</text>
<text text-anchor="start" x="676.5" y="-297.4" font-family="Bitstream-Vera Sans" font-size="7.00">&#45; well_type_uid : INTEGER</text>
<polygon fill="none" stroke="black" points="673.5,-292 673.5,-332 767.5,-332 767.5,-292 673.5,-292"/>
</g>
<!-- xtal_ptype_wtype&#45;&gt;xtal_plate_type -->
<g id="edge21" class="edge">
<title>xtal_ptype_wtype&#45;&gt;xtal_plate_type</title>
<path fill="none" stroke="black" d="M732.49,-287.85C741.68,-269.01 753.89,-241.46 760.5,-216 773.06,-167.6 777.32,-109.49 778.76,-74.44"/>
<ellipse fill="none" stroke="black" cx="778.93" cy="-70.05" rx="4" ry="4"/>
<text text-anchor="middle" x="771.07" y="-68.45" font-family="Bitstream-Vera Sans" font-size="7.00">+ uid</text>
<text text-anchor="middle" x="706.49" y="-282.25" font-family="Bitstream-Vera Sans" font-size="7.00">+ plate_type_uid</text>
</g>
<!-- xtal_ptype_wtype&#45;&gt;xtal_well_type -->
<g id="edge22" class="edge">
<title>xtal_ptype_wtype&#45;&gt;xtal_well_type</title>
<path fill="none" stroke="black" d="M717.08,-287.87C713.81,-265.74 708.82,-232.01 704.99,-206.12"/>
<ellipse fill="none" stroke="black" cx="704.38" cy="-201.98" rx="4" ry="4"/>
<text text-anchor="middle" x="695.79" y="-200.42" font-family="Bitstream-Vera Sans" font-size="7.00">+ uid</text>
<text text-anchor="middle" x="741.58" y="-282.27" font-family="Bitstream-Vera Sans" font-size="7.00">+ well_type_uid</text>
</g>
</g>
</svg>
